<svg height="512" viewBox="0 0 58 58" width="512" xmlns="http://www.w3.org/2000/svg"><g id="Page-1" fill="none" fill-rule="evenodd"><g id="088---Secure-Document-Envelope"><path id="Path" d="m44 58h-42c-1.10320187-.0032948-1.9967052-.8967981-2-2v-54c.0032948-1.10320187.89679813-1.9967052 2-2h42c1.1032019.0032948 1.9967052.89679813 2 2v30z" fill="#f0c419"/><path id="Path" d="m38.93 6h-31.86c-.66874666-.00012287-1.29317998-.33447989-1.664-.891l-3.406-5.109h42l-3.406 5.109c-.37082.55652011-.9952533.89087713-1.664.891z" fill="#f29c1f"/><rect id="Rectangle" fill="#f3d55b" height="26" rx="3" width="28" x="30" y="32"/><path id="Path" d="m38 32v-6c0-3.3137085 2.6862915-6 6-6s6 2.6862915 6 6v6h4v-6c0-5.5228475-4.4771525-10-10-10s-10 4.4771525-10 10v6z" fill="#95a5a5"/><g fill="#f29c1f"><path id="Path" d="m47.711 50.771-1.311-5.585c1.3799096-1.0315692 1.9442631-2.8308076 1.4007197-4.4656917s-2.0728484-2.7380522-3.7957197-2.7380522-3.2521763 1.1031681-3.7957197 2.7380522.0208101 3.4341225 1.4007197 4.4656917l-1.316 5.585c-.0697831.2966187-.0005155.6088702.188149.8481567.1886645.2392866.4761371.3794952.780851.3808433h5.474c.3055917.0001753.5944896-.1393895.7842961-.3788886.1898064-.2394991.2596845-.5526404.1897039-.8501114z"/><path id="Path" d="m33 58h-31l3.41-5.11c.36788624-.5575714.99200199-.8921877 1.66-.89h22.93v3c0 1.6568542 1.3431458 3 3 3z"/></g></g></g></svg>